<svg width="88" height="23" viewBox="0 0 88 23" fill="none" xmlns="http://www.w3.org/2000/svg">
<mask id="mask0_469_14647" style="mask-type:luminance" maskUnits="userSpaceOnUse" x="0" y="0" width="88" height="23">
<path d="M87.4772 0.21875H0.521484V22.805H87.4772V0.21875Z" fill="white"/>
</mask>
<g mask="url(#mask0_469_14647)">
<path d="M8.05048 7.75H0.521484V15.279H8.05048V7.75Z" fill="#0083A0"/>
<path d="M15.5798 22.805V15.2768H23.1088V22.805H15.5798ZM8.05078 22.805V15.2768H15.5798V22.805H8.05078ZM15.5798 15.2768V7.74775H23.1088V15.2768H15.5798ZM15.5798 7.74775V0.21875H23.1088V7.74775H15.5798Z" fill="#004F69"/>
<path d="M36.0207 6.63388H39.0932V18.2701C39.1259 18.9974 38.9499 19.7188 38.586 20.3491C38.2416 20.8828 37.7329 21.2898 37.1367 21.5086C36.4172 21.7698 35.6555 21.8946 34.8904 21.8766C34.7806 21.8766 34.6775 21.8753 34.5809 21.8724C34.4842 21.8695 34.3811 21.8651 34.2715 21.8593V19.46C34.3521 19.4659 34.4231 19.4701 34.4845 19.4731C34.5459 19.476 34.6096 19.4774 34.6759 19.4774C34.8619 19.4966 35.0499 19.4788 35.2289 19.4246C35.4079 19.3705 35.5744 19.2813 35.7186 19.1623C35.9381 18.8995 36.0465 18.5615 36.0207 18.2201V6.63388ZM37.5512 5.202C37.1151 5.20988 36.6935 5.04588 36.3772 4.7455C36.2221 4.60825 36.0981 4.43925 36.0137 4.25C35.9294 4.06075 35.8865 3.85563 35.8881 3.64838C35.8865 3.44121 35.9294 3.23608 36.0137 3.04681C36.0981 2.85756 36.2221 2.6886 36.3772 2.55133C36.6935 2.25093 37.1151 2.08694 37.5512 2.0948C37.9881 2.08613 38.4107 2.25019 38.7272 2.55133C38.882 2.68886 39.0054 2.85794 39.0892 3.04719C39.1731 3.23643 39.2155 3.44144 39.2135 3.64838C39.2154 3.8555 39.173 4.0605 39.089 4.24975C39.005 4.439 38.8814 4.608 38.7266 4.7455C38.41 5.04625 37.9877 5.21063 37.5512 5.202ZM48.2266 17.9354C47.2035 17.9631 46.1909 17.7241 45.2881 17.2419C44.4735 16.7865 43.8135 16.0981 43.3925 15.2651C42.93 14.321 42.7025 13.2791 42.7295 12.2281C42.7065 11.1878 42.9346 10.1573 43.3946 9.22375C43.8146 8.38813 44.4641 7.6895 45.2671 7.21C46.1289 6.71275 47.1109 6.462 48.1055 6.48538C48.8045 6.4805 49.4986 6.60025 50.1555 6.839C50.7779 7.0655 51.3437 7.42425 51.8142 7.8905C52.3072 8.38938 52.6856 8.98988 52.923 9.64988C53.2034 10.4426 53.3384 11.2795 53.3215 12.1201V12.9629H43.9591V11.0571H50.4272C50.4322 10.6469 50.3311 10.2423 50.1339 9.8825C49.9466 9.54588 49.671 9.26675 49.3367 9.07525C48.9774 8.87438 48.5709 8.773 48.1591 8.78175C47.7246 8.77313 47.2961 8.88525 46.9215 9.10563C46.5702 9.31388 46.2799 9.61075 46.0795 9.9665C45.8751 10.3314 45.7676 10.7425 45.7671 11.1608V12.9724C45.7542 13.4646 45.8601 13.9528 46.0759 14.3955C46.2689 14.7816 46.5714 15.1025 46.9454 15.318C47.3527 15.5415 47.8121 15.653 48.2766 15.6411C48.5965 15.6456 48.9149 15.5966 49.2186 15.4963C49.49 15.405 49.7389 15.2568 49.9482 15.0615C50.155 14.8661 50.3131 14.6253 50.4099 14.3579L53.2512 14.5426C53.1179 15.2058 52.814 15.8228 52.3694 16.3325C51.8999 16.8583 51.3109 17.2633 50.6519 17.5136C49.8776 17.8071 49.0545 17.9503 48.2266 17.9354ZM60.028 11.3115V17.7216H56.9555V6.63463H59.8831V8.59113H60.0106C60.2469 7.95913 60.681 7.42038 61.2482 7.055C61.8775 6.66288 62.6087 6.466 63.3497 6.489C64.0552 6.47263 64.752 6.648 65.3657 6.99625C65.9414 7.33625 66.4055 7.8365 66.7012 8.43613C67.0339 9.12888 67.1956 9.89113 67.173 10.6593V17.7216H64.1005V11.2071C64.1382 10.6286 63.952 10.0578 63.5802 9.61288C63.3944 9.41813 63.1687 9.266 62.9185 9.16675C62.6684 9.06763 62.3996 9.02375 62.1309 9.03825C61.7486 9.0305 61.371 9.1235 61.036 9.30788C60.7187 9.4885 60.4619 9.75863 60.2976 10.0846C60.111 10.4661 60.0185 10.8869 60.028 11.3115ZM80.4454 9.78975L77.6331 9.96288C77.5831 9.72363 77.4762 9.5 77.3215 9.31075C77.1532 9.10738 76.9391 8.94663 76.6969 8.84188C76.4051 8.71838 76.0904 8.65863 75.7736 8.6665C75.3519 8.6525 74.9344 8.75575 74.5679 8.96513C74.4215 9.0395 74.2986 9.15288 74.2129 9.29288C74.127 9.43275 74.0816 9.59375 74.0816 9.75788C74.0787 9.88663 74.1054 10.0143 74.1595 10.1311C74.2137 10.2479 74.2939 10.3508 74.394 10.4318C74.718 10.6619 75.0915 10.8128 75.4845 10.8724L77.4946 11.2796C78.379 11.411 79.2114 11.7794 79.9034 12.3455C80.1665 12.593 80.3737 12.8939 80.5112 13.2279C80.6487 13.5619 80.7132 13.9215 80.7005 14.2825C80.7095 14.9745 80.4837 15.6491 80.0599 16.1963C79.6012 16.77 78.9984 17.2115 78.3127 17.4753C77.5009 17.7931 76.6345 17.9485 75.7627 17.9325C74.5277 17.9969 73.303 17.6771 72.257 17.0173C71.8385 16.733 71.486 16.362 71.2234 15.9296C70.9609 15.4971 70.7944 15.0133 70.7352 14.5108L73.7555 14.3491C73.7914 14.556 73.8687 14.7534 73.983 14.9294C74.0972 15.1055 74.2459 15.2566 74.42 15.3738C74.8255 15.6221 75.2957 15.744 75.7707 15.7238C76.2267 15.7451 76.6794 15.6355 77.0751 15.4079C77.2225 15.329 77.3465 15.2125 77.4342 15.0701C77.5221 14.9279 77.5707 14.7649 77.5751 14.5978C77.5755 14.463 77.5441 14.3301 77.4832 14.21C77.4224 14.0898 77.3339 13.9858 77.2251 13.9064C76.9037 13.6895 76.5381 13.5469 76.1549 13.489L74.2374 13.1079C73.3374 12.982 72.4955 12.5904 71.8194 11.9833C71.5549 11.7139 71.3481 11.3936 71.2115 11.0418C71.075 10.69 71.0116 10.314 71.0251 9.93688C71.0064 9.27588 71.2106 8.62788 71.6049 8.097C72.0304 7.55513 72.5989 7.143 73.2461 6.90713C74.0376 6.6135 74.8774 6.47163 75.7215 6.489C76.8914 6.42425 78.0512 6.73475 79.0324 7.37525C79.4249 7.656 79.7535 8.0165 79.997 8.433C80.2406 8.84963 80.3934 9.31288 80.4454 9.79263V9.78975ZM84.2722 17.7216V6.63463H87.3446V17.7216H84.2722ZM85.8164 5.20138C85.3797 5.20913 84.9574 5.04525 84.6404 4.74475C84.4851 4.6075 84.3611 4.43863 84.2767 4.24925C84.1924 4.06 84.1496 3.85488 84.1512 3.64775C84.1496 3.44044 84.1926 3.23525 84.2771 3.046C84.3616 2.85674 84.4857 2.6878 84.641 2.5506C84.9571 2.25044 85.3785 2.08649 85.8142 2.09408C86.2511 2.0854 86.6737 2.24946 86.9904 2.5506C87.1451 2.68808 87.2687 2.85713 87.3527 3.04636C87.4367 3.23561 87.4792 3.44066 87.4772 3.64775C87.4792 3.85475 87.4367 4.05975 87.3527 4.249C87.2687 4.43825 87.1451 4.60738 86.9904 4.74475C86.6744 5.04563 86.2526 5.20963 85.8164 5.20138Z" fill="white"/>
</g>
</svg>
